<?xml version="1.0" encoding="UTF-8" standalone="no"?><!DOCTYPE svg PUBLIC "-//W3C//DTD SVG 1.1//EN" "http://www.w3.org/Graphics/SVG/1.1/DTD/svg11.dtd"><svg width="100%" height="100%" viewBox="0 0 875 875" version="1.1" xmlns="http://www.w3.org/2000/svg" xmlns:xlink="http://www.w3.org/1999/xlink" xml:space="preserve" xmlns:serif="http://www.serif.com/" style="fill-rule:evenodd;clip-rule:evenodd;stroke-linejoin:round;stroke-miterlimit:2;"><rect id="Avatarplaceholder" x="0" y="0" width="874.987" height="874.987" style="fill:none;"/><clipPath id="_clip1"><rect x="0" y="0" width="874.987" height="874.987"/></clipPath><g clip-path="url(#_clip1)"><g id="background"><rect x="-709" y="-573" width="2200" height="2200" style="fill:#dcdce0;"/></g><g id="Objects"><g><path d="M159.013,755.828c-11.273,-9.901 -22.028,-20.378 -32.22,-31.383c-4.271,-4.614 -8.443,-9.32 -12.51,-14.12c-63.766,-75.201 -102.22,-172.541 -102.22,-278.863c0,-238.288 193.174,-431.462 431.462,-431.462c238.288,0 431.462,193.174 431.462,431.462c0,106.323 -38.455,203.662 -102.221,278.863c-4.067,4.8 -8.24,9.506 -12.51,14.12c-10.192,11.005 -20.947,21.482 -32.22,31.383l-569.023,0Z" style="fill:#dcdce0;fill-rule:nonzero;"/><path d="M728.036,755.828c-75.951,66.671 -175.516,107.096 -284.511,107.096c-108.995,0 -208.561,-40.424 -284.511,-107.096c63.888,-101.413 167.52,-167.352 284.511,-167.352c116.991,0 220.623,65.94 284.511,167.352Z" style="fill:#aaaab2;fill-rule:nonzero;"/><circle cx="443.525" cy="342.102" r="174.263" style="fill:#aaaab2;"/></g></g></g></svg>